HIERARCHY
ROOT Hips
{
	OFFSET 0.000000 0.000000 0.000000 
	CHANNELS 6 Xposition Yposition Zposition Zrotation Yrotation Xrotation
	JOINT LeftUpLeg
	{
		OFFSET 1.363060 -1.794630 0.839290 
		CHANNELS 3 Zrotation Yrotation Xrotation
		JOINT LeftLeg
		{
			OFFSET 2.448110 -6.726130 0.000000 
			CHANNELS 3 Zrotation Yrotation Xrotation
			JOINT LeftFoot
			{
				OFFSET 2.562200 -7.039590 0.000000 
				CHANNELS 3 Zrotation Yrotation Xrotation
				JOINT LeftToeBase
				{
					OFFSET 0.157640 -0.433110 2.322550 
					CHANNELS 3 Zrotation Yrotation Xrotation
					End Site
					{
						OFFSET 0.000000 0.000000 0.000000 
					}
				}
			}
		}
	}
	JOINT RightUpLeg
	{
		OFFSET -1.305520 -1.794630 0.839290 
		CHANNELS 3 Zrotation Yrotation Xrotation
		JOINT RightLeg
		{
			OFFSET -2.542530 -6.985550 0.000000 
			CHANNELS 3 Zrotation Yrotation Xrotation
			JOINT RightFoot
			{
				OFFSET -2.568260 -7.056230 0.000000 
				CHANNELS 3 Zrotation Yrotation Xrotation
				JOINT RightToeBase
				{
					OFFSET -0.164730 -0.452590 2.363150 
					CHANNELS 3 Zrotation Yrotation Xrotation
					End Site
					{
						OFFSET 0.000000 0.000000 0.000000 
					}
				}
			}
		}
	}
	JOINT Spine
	{
		OFFSET 0.028270 2.035590 -0.193380 
		CHANNELS 3 Zrotation Yrotation Xrotation
		JOINT Spine1
		{
			OFFSET 0.056720 2.048850 -0.042750 
			CHANNELS 3 Zrotation Yrotation Xrotation
			JOINT Neck1
			{
				OFFSET -0.054170 1.746240 0.172020 
				CHANNELS 3 Zrotation Yrotation Xrotation
				JOINT Head
				{
					OFFSET 0.104070 1.761360 -0.123970 
					CHANNELS 3 Zrotation Yrotation Xrotation
					End Site
					{
						OFFSET 0.000000 0.000000 0.000000 
					}
				}
			}
			JOINT LeftArm
			{
				OFFSET 3.362410 1.200890 -0.311210 
				CHANNELS 3 Zrotation Yrotation Xrotation
				JOINT LeftForeArm
				{
					OFFSET 4.983000 -0.000000 -0.000000 
					CHANNELS 3 Zrotation Yrotation Xrotation
					JOINT LeftHand
					{
						OFFSET 3.483560 -0.000000 -0.000000 
						CHANNELS 3 Zrotation Yrotation Xrotation
						JOINT LeftHandIndex1
						{
							OFFSET 0.715260 -0.000000 -0.000000 
							CHANNELS 3 Zrotation Yrotation Xrotation
							End Site
							{
								OFFSET 0.000000 0.000000 0.000000 
							}
						}
					}
				}
			}
			JOINT RightArm
			{
				OFFSET -3.136600 1.374050 -0.404650 
				CHANNELS 3 Zrotation Yrotation Xrotation
				JOINT RightForeArm
				{
					OFFSET -5.241900 -0.000000 -0.000000 
					CHANNELS 3 Zrotation Yrotation Xrotation
					JOINT RightHand
					{
						OFFSET -3.444170 -0.000000 -0.000000 
						CHANNELS 3 Zrotation Yrotation Xrotation
						JOINT RightHandIndex1
						{
							OFFSET -0.622530 -0.000000 -0.000000 
							CHANNELS 3 Zrotation Yrotation Xrotation
							End Site
							{
								OFFSET 0.000000 0.000000 0.000000 
							}
						}
					}
				}
			}
		}
	}
}
MOTION
Frames: 17
Frame Time: 0.041667
-5.494405 17.833539 -4.775017 103.864238 -86.221714 -108.521031 -26.494041 1.605547 2.109970 -0.064612 8.937058 20.565780 -0.841558 6.760669 -7.542926 0.357700 3.842500 10.634000 11.741754 -11.373767 -13.887330 -12.258819 -19.746523 68.431341 0.140968 -4.053674 -4.298604 -0.274900 -3.372500 9.317700 -0.103823 -1.118809 -1.551534 2.650949 -0.611746 5.163438 5.702506 3.137031 16.886174 1.699500 1.000900 16.189800 -74.521785 -6.460952 22.891453 4.380755 -16.747901 -1.316167 -0.612894 0.423865 5.283082 -7.125000 0.000000 0.000000 69.269586 -7.167034 6.808817 -7.571601 19.240218 -2.754262 1.334590 0.642406 0.506377 7.125000 0.000000 0.000000 
-5.648008 17.830149 -4.773746 100.967633 -86.408028 -105.604828 -26.448047 1.526648 2.627759 -0.054682 8.948681 20.622355 -0.812427 6.648420 -7.833116 0.307600 3.565500 9.857300 12.317265 -11.251001 -14.842841 -12.001736 -19.701318 67.648252 0.144842 -4.227655 -5.342529 -0.247400 -3.200400 8.837100 -0.052488 -1.316260 -1.469982 2.779919 -0.740357 5.619325 5.697676 3.200146 16.863634 1.689500 1.039700 16.174400 -74.291764 -7.329836 23.433415 4.522710 -16.940143 -1.369923 -0.626714 0.525996 4.779111 -7.125000 0.000000 0.000000 69.197728 -7.223015 5.520390 -7.266858 18.808680 -2.670513 1.328199 0.634310 1.372899 7.125000 0.000000 0.000000 
-5.785508 17.817543 -4.767496 96.941159 -86.547554 -101.575829 -26.470507 1.489732 3.068296 -0.031224 9.003027 20.794285 -0.781127 6.531053 -8.157821 0.289500 3.459900 9.561900 12.763506 -11.137912 -15.822421 -11.715404 -19.621441 66.762068 0.147996 -4.475372 -6.524422 -0.208500 -2.940200 8.112400 -0.047621 -1.482114 -1.517167 2.685188 -0.797076 5.414692 5.641682 3.171930 16.855928 1.610600 1.047200 16.190300 -73.877971 -7.784319 24.438535 4.807746 -17.308564 -1.424437 -0.648015 0.448770 3.666416 -7.125000 0.000000 0.000000 69.320129 -7.815473 4.649888 -7.072251 18.542340 -2.617464 1.321542 0.625779 1.638594 7.125000 0.000000 0.000000 
-5.914004 17.793391 -4.757221 91.385748 -86.506637 -95.927685 -26.615259 1.669873 3.285010 0.000737 9.098417 21.053442 -0.631619 5.901370 -8.405858 0.294500 3.489700 9.645100 12.928215 -11.183122 -16.850436 -11.404774 -19.492319 65.776066 0.131630 -4.520527 -7.452721 -0.193700 -2.834000 7.816900 -0.033915 -1.711161 -1.500581 2.732978 -0.913512 5.553890 5.649415 3.196581 16.735594 1.620000 1.067100 16.121500 -73.563508 -8.453574 25.349722 5.131757 -17.734461 -1.504813 -0.716776 0.412574 2.615335 -7.125000 0.000000 0.000000 69.249915 -7.994150 4.098788 -6.876911 18.283715 -2.571729 1.325604 0.626404 1.600583 7.125000 0.000000 0.000000 
-6.048645 17.765848 -4.744297 85.840148 -86.482548 -90.324356 -26.718958 1.746975 3.562748 0.036963 9.198037 21.328233 -0.573531 5.634074 -8.248135 0.289600 3.460900 9.564800 13.107065 -11.355697 -17.715367 -11.047415 -19.324292 64.626217 0.105534 -4.452152 -8.166841 -0.258200 -3.269100 9.028800 -0.010719 -1.988947 -1.528254 2.745664 -1.037296 5.511864 5.660204 3.286926 16.646778 1.655300 1.097000 16.044100 -73.319872 -8.808932 26.099409 5.499854 -18.218622 -1.599338 -0.731261 0.387409 1.747680 -7.125000 0.000000 0.000000 69.176442 -8.320410 3.057814 -6.692157 18.003282 -2.520198 1.317595 0.622239 1.952621 7.125000 0.000000 0.000000 
-6.186357 17.755573 -4.738471 82.152505 -86.646159 -86.565859 -26.603149 1.569297 3.913865 0.067922 9.269283 21.559964 -0.552809 5.560707 -8.525795 0.268100 3.330800 9.201200 13.704745 -11.183598 -18.514832 -10.611692 -19.158324 63.239084 0.098731 -4.674531 -8.987050 -0.315200 -3.609100 9.979500 0.009803 -2.145565 -1.605930 2.654581 -1.078306 5.195219 5.634712 3.295498 16.570051 1.614600 1.111900 15.943700 -72.984131 -9.025108 26.887816 5.783385 -18.570689 -1.659951 -0.643172 0.370685 0.872544 -7.125000 0.000000 0.000000 69.337604 -8.887835 1.778860 -6.564651 17.784791 -2.493883 1.306876 0.621827 2.266632 7.125000 0.000000 0.000000 
-6.323964 17.753030 -4.738788 79.494913 -86.741690 -83.790816 -26.514983 1.544838 4.230635 0.085303 9.303143 21.680210 -0.469967 5.238277 -8.973212 0.212600 2.968800 8.191900 14.318783 -10.767760 -19.234673 -10.119570 -18.970084 61.665768 0.098071 -5.080943 -10.027011 -0.283500 -3.424600 9.463200 0.015272 -2.182679 -1.578589 2.602880 -1.098352 5.351193 5.671409 3.172840 16.473835 1.616000 1.082600 15.859800 -72.603013 -9.678729 27.987386 6.057453 -18.905613 -1.721167 -0.655096 0.350502 -0.058337 -7.125000 0.000000 0.000000 69.542057 -9.023362 0.142152 -6.301090 17.364135 -2.428583 1.299081 0.608268 2.786989 7.125000 0.000000 0.000000 
-6.465278 17.743285 -4.734763 76.416805 -86.563927 -80.667634 -26.683725 1.796920 4.645453 0.080460 9.274476 21.603865 -0.328718 4.654399 -9.288590 0.146200 2.463800 6.789300 14.508900 -10.506143 -19.824898 -9.611652 -18.705613 59.987902 0.090924 -5.392901 -10.880289 -0.227600 -3.070900 8.476300 0.059085 -2.404473 -1.681929 2.830622 -1.187541 4.974636 5.618335 3.257925 16.519890 1.589300 1.093700 15.864500 -72.435123 -9.609022 29.032869 6.550725 -19.572841 -1.854491 -0.672519 0.313646 -1.111232 -7.125000 0.000000 0.000000 69.439133 -9.769052 -0.783933 -6.154278 17.117061 -2.386980 1.293300 0.610124 3.176102 7.125000 0.000000 0.000000 
-6.607863 17.733327 -4.725759 73.891193 -86.202084 -78.074971 -27.072382 2.050418 5.193367 0.047614 9.180652 21.312480 -0.227328 4.226018 -9.410585 0.105900 2.098400 5.777700 14.391646 -10.394541 -20.381422 -9.092289 -18.390845 58.224755 0.083089 -5.579771 -11.342152 -0.220200 -3.020800 8.336600 0.046252 -2.579882 -1.631420 2.857731 -1.293432 5.286120 5.529469 3.310652 16.501633 1.538000 1.110800 15.871600 -72.115431 -10.153424 29.712104 7.009938 -20.152657 -1.986158 -0.681179 0.294444 -2.141039 -7.125000 0.000000 0.000000 69.424517 -9.887862 -1.568630 -6.057868 16.957405 -2.367625 1.288312 0.613633 3.393864 7.125000 0.000000 0.000000 
-6.757122 17.729937 -4.722369 73.117080 -85.825810 -77.261686 -27.502519 2.195784 5.846972 0.001266 9.044622 20.905610 -0.254117 4.355046 -9.459975 0.094000 1.977000 5.442000 14.286278 -10.137261 -20.771145 -8.538546 -18.041764 56.311312 0.063273 -5.665452 -11.808068 -0.266500 -3.321200 9.174400 0.016864 -2.636947 -1.597731 2.887357 -1.338565 5.485896 5.455257 3.323515 16.479166 1.474300 1.123500 15.880500 -71.856238 -10.704112 30.121355 7.306838 -20.510723 -2.076784 -0.683573 0.304237 -2.878747 -7.125000 0.000000 0.000000 69.489140 -10.138486 -2.071422 -6.013634 16.885786 -2.365446 1.283445 0.623665 3.204715 7.125000 0.000000 0.000000 
-6.907228 17.725912 -4.735081 72.982023 -85.754234 -77.016453 -27.532319 2.392959 6.463728 -0.046305 8.867836 20.434166 -0.274899 4.447906 -9.459621 0.092700 1.963200 5.403900 14.704006 -9.404032 -21.111773 -7.940909 -17.695870 54.241904 0.049683 -5.863481 -12.342837 -0.284000 -3.427500 9.471200 0.033992 -2.640323 -1.634834 3.050317 -1.341577 5.399206 5.417341 3.345208 16.436455 1.434500 1.136100 15.868100 -71.651926 -11.036473 30.676224 7.587343 -20.856071 -2.159604 -0.681151 0.305648 -3.570496 -7.125000 0.000000 0.000000 69.536224 -10.604782 -2.469307 -5.940665 16.770608 -2.348697 1.282216 0.627279 2.925434 7.125000 0.000000 0.000000 
-7.057123 17.724534 -4.758704 72.772763 -86.089141 -76.677056 -27.051180 2.707965 7.038537 -0.087802 8.658765 19.936009 -0.201889 4.109912 -9.395364 0.078500 1.807300 4.973400 15.724038 -8.199341 -21.281273 -7.279883 -17.334388 51.942823 0.050246 -6.285047 -13.012496 -0.268600 -3.333700 9.209100 0.102443 -2.631221 -1.741193 3.303873 -1.316745 5.004168 5.526499 3.266431 16.413645 1.507600 1.097500 15.826000 -71.474269 -11.058045 31.225800 7.902382 -21.254135 -2.252186 -0.675384 0.288792 -4.022689 -7.125000 0.000000 0.000000 69.636751 -11.334955 -3.141261 -5.849379 16.607765 -2.325791 1.281469 0.624509 2.996435 7.125000 0.000000 0.000000 
-7.196848 17.718920 -4.737093 69.160004 -85.615040 -72.846485 -27.551723 2.789575 7.664097 -0.160413 8.443967 19.287565 -0.146493 3.856627 -9.303877 0.049900 1.442100 3.966100 15.437383 -8.351533 -21.660101 -6.694126 -16.804277 49.678310 -0.035475 -5.657774 -13.313378 -0.246000 -3.191700 8.813000 0.028798 -2.777801 -1.657368 3.004720 -1.406581 5.518010 5.594868 3.139392 16.320293 1.571800 1.059600 15.781900 -71.137522 -11.897591 31.659349 8.150594 -21.501347 -2.320454 -0.677692 0.286162 -4.403663 -7.125000 0.000000 0.000000 69.835599 -11.198529 -4.291389 -5.688803 16.353524 -2.289254 1.278879 0.602393 3.560616 7.125000 0.000000 0.000000 
-7.348649 17.725912 -4.745462 69.627037 -85.648154 -73.114406 -27.527076 3.010595 8.361733 -0.235140 8.148582 18.497622 -0.173601 3.980793 -9.324120 0.035900 1.223100 3.362800 15.902337 -7.399939 -21.829124 -6.066107 -16.321482 47.287595 -0.081172 -5.551679 -13.830196 -0.236400 -3.129300 8.639100 0.050313 -2.845648 -1.709012 3.072617 -1.431882 5.432650 5.548335 3.206511 16.319927 1.539700 1.079900 15.737600 -70.929816 -12.029695 31.980880 8.433271 -21.852774 -2.414203 -0.684094 0.288868 -5.125051 -7.125000 0.000000 0.000000 69.895799 -11.558328 -5.168149 -5.530324 16.084326 -2.235292 1.270464 0.586369 4.139126 7.125000 0.000000 0.000000 
-7.492612 17.713306 -4.751924 70.690970 -85.262522 -73.998308 -27.926775 3.410317 9.115301 -0.318591 7.823461 17.583469 -0.199970 4.071723 -9.047565 0.042600 1.331800 3.662300 15.786507 -6.575476 -22.019466 -5.478534 -15.780784 44.927704 -0.078999 -5.803879 -14.011166 -0.287300 -3.446800 9.525300 0.031097 -2.903728 -1.724181 3.206656 -1.473734 5.483707 5.496567 3.282744 16.310468 1.519900 1.098000 15.718100 -70.769416 -12.352407 32.308354 8.704438 -22.179315 -2.506797 -0.692447 0.302463 -5.832560 -7.125000 0.000000 0.000000 69.906477 -11.646082 -6.038286 -5.330046 15.748487 -2.172680 1.265444 0.572282 4.711554 7.125000 0.000000 0.000000 
-7.648439 17.701971 -4.751712 70.748621 -85.009350 -73.865927 -28.187240 3.779815 9.915244 -0.397723 7.480415 16.637555 -0.209274 4.080011 -8.697886 0.046900 1.397000 3.841900 15.739440 -5.884844 -22.061441 -4.893991 -15.186535 42.474458 -0.063952 -6.253026 -14.278752 -0.380400 -3.961300 10.967700 -0.014925 -2.887963 -1.691663 3.061888 -1.477901 5.788662 5.433403 3.230989 16.322437 1.459300 1.088100 15.752600 -70.548423 -12.746518 32.675611 8.958869 -22.472600 -2.592357 -0.695868 0.319543 -6.203430 -7.125000 0.000000 0.000000 70.112232 -11.812089 -6.646723 -5.271208 15.655639 -2.168063 1.262560 0.570352 4.939782 7.125000 0.000000 0.000000 
-7.806384 17.708751 -4.756691 71.194784 -85.147497 -74.081709 -28.041672 4.056768 10.728409 -0.488654 7.030693 15.449892 -0.212318 4.065923 -8.420596 0.025200 1.025300 2.818300 16.114669 -4.577151 -21.967704 -4.323311 -14.616299 40.038340 -0.078476 -6.771660 -15.280845 -0.445400 -4.282100 11.871600 0.017028 -2.903091 -1.790047 3.077190 -1.457638 5.529688 5.327521 3.276490 16.352678 1.360700 1.105800 15.758700 -70.456849 -12.599273 32.956164 9.252689 -22.841930 -2.693870 -0.690271 0.318859 -6.626419 -7.125000 0.000000 0.000000 70.165338 -12.545379 -6.775208 -5.310635 15.718691 -2.183840 1.258167 0.581817 4.920679 7.125000 0.000000 0.000000 
